<svg xmlns="http://www.w3.org/2000/svg" viewBox="0 0 64 64" x="0px" y="0px" style="max-width:100%" height="100%"><title style="" fill="currentColor">return-Package-shipping-service</title><g style="" fill="currentColor"><path d="M55,11a1,1,0,0,0-.043-.268c0-.012,0-.023,0-.035l0,0A.877.877,0,0,0,54.7,10.3a1.032,1.032,0,0,0-.187-.148,1.019,1.019,0,0,0-.119-.06.9.9,0,0,0-.088-.044l-22-7a1,1,0,0,0-.606,0l-22,7A1,1,0,0,0,9,11V35a1,1,0,0,0,.7.953l22,7a1,1,0,0,0,.606,0l4-1.272a1,1,0,0,0-.606-1.907l-2.7.858V37a1,1,0,0,0-2,0v3.632L11,34.269V11.731L17.667,9.61l18.7,5.951L32,16.95,15.3,11.638a1,1,0,1,0-.606,1.906L31,18.731V33a1,1,0,0,0,2,0V18.731l5.667-1.8v6.634a1,1,0,0,0,1,1,1.019,1.019,0,0,0,.3-.047l2.333-.744a1,1,0,0,0-.606-1.906l-1.03.328v-5.9l5.166-1.644v5.9l-1.136.361a1,1,0,0,0,.3,1.953.971.971,0,0,0,.3-.047l1.834-.583a1,1,0,0,0,.7-.953V14.012L53,12.368v21.9l-1.3.415A1,1,0,1,0,52.3,36.59l2-.637A1,1,0,0,0,55,35ZM32,5.05,50.7,11l-3.868,1.231L28.133,6.28ZM20.966,8.561,24.834,7.33l18.7,5.95-3.868,1.231Z" style="" fill="currentColor"></path><path d="M13,29v3a1,1,0,0,0,2,0V29a1,1,0,0,0-2,0Z" style="" fill="currentColor"></path><path d="M17,30v3a1,1,0,0,0,2,0V30a1,1,0,0,0-2,0Z" style="" fill="currentColor"></path><path d="M49,46V32a1,1,0,0,0-2,0V46a9.01,9.01,0,0,1-9,9H26a1,1,0,0,0-1,1v2.079L17.744,53,25,47.921V50a1,1,0,0,0,1,1h9a6.006,6.006,0,0,0,6-6V41a1,1,0,0,0-2,0v4a4,4,0,0,1-4,4H27V46a1,1,0,0,0-1.573-.819l-10,7a1,1,0,0,0,0,1.638l10,7A1,1,0,0,0,27,60V57H38A11.013,11.013,0,0,0,49,46Z" style="" fill="currentColor"></path><path d="M40,38a1,1,0,0,0,1-1V35a1,1,0,0,0-2,0v2A1,1,0,0,0,40,38Z" style="" fill="currentColor"></path><path d="M49,26a1,1,0,0,0-2,0v2a1,1,0,0,0,2,0Z" style="" fill="currentColor"></path><path d="M45,38V30a1,1,0,0,0-2,0v8a1,1,0,0,0,2,0Z" style="" fill="currentColor"></path></g></svg>
