<svg xmlns="http://www.w3.org/2000/svg" viewBox="0 0 64 64" x="0px" y="0px" style="max-width:100%" height="100%"><title style="" fill="currentColor">a</title><g data-name="12 Zero Waste" style="" fill="currentColor"><path d="M56.156,16.23a6.98,6.98,0,0,0-1.606-1.3L44.433,9.1,35.5,3.94a6.75,6.75,0,0,0-1.493-.624,7.138,7.138,0,0,0-4.14.041A6.775,6.775,0,0,0,28.5,3.94L19.615,9.07,9.448,14.935A7.151,7.151,0,0,0,5.949,21V43a7.019,7.019,0,0,0,3.5,6.062l4.118,2.377.842.488h0l7.117,4.11.007.006c.044.027.089.05.134.075L28.5,60.06A7.462,7.462,0,0,0,32,61a7.033,7.033,0,0,0,1.58-.192A6.945,6.945,0,0,0,35.5,60.06l6.828-3.942c.045-.025.09-.048.134-.075l.007-.006,7.115-4.108.007,0,.758-.439,4.2-2.426A7.019,7.019,0,0,0,58.051,43V21A7.01,7.01,0,0,0,56.156,16.23Zm-14.9,38.2c-.024.012-.048.027-.071.039l-.088.047A5.63,5.63,0,0,1,33,49.45V41.969c.352.028.68.031,1,.031,5.537,0,7-6.541,7-10a1,1,0,0,0-1.447-.895A11.113,11.113,0,0,1,35,32c-.18,0-.342.016-.511.026A10.452,10.452,0,0,0,32.272,27.1,5.1,5.1,0,0,1,30.94,24.15c0-.226.017-.433.032-.618S31,23.157,31,23a1,1,0,0,0-1.315-.949C26.4,23.143,23,27.537,23,33c0,2.774,1.159,6.391,6.633,7.932A13.175,13.175,0,0,0,31,41.523V49.45a5.63,5.63,0,0,1-8.094,5.065l-.088-.047c-.023-.012-.047-.027-.071-.039L15.415,50.2A3,3,0,0,1,13.95,47.62V22.16a1,1,0,0,1,.5-.874L31.5,11.445a.983.983,0,0,1,1,0l17.048,9.839a1,1,0,0,1,.5.875V47.62A3,3,0,0,1,48.585,50.2Zm-9.894,4.525a4.955,4.955,0,0,1-1.859-.63L27.041,56.9a7.7,7.7,0,0,0,2.365-.976A7.61,7.61,0,0,0,32,53.243a7.61,7.61,0,0,0,2.594,2.684,7.712,7.712,0,0,0,2.365.976L34.5,58.325a4.939,4.939,0,0,1-1.591.578A5.026,5.026,0,0,1,31.359,58.954Zm1.294-19.045a13.229,13.229,0,0,0,3.054-2.2,1,1,0,0,0-1.414-1.414,12.185,12.185,0,0,1-3.354,2.237c0-.087.008-.178.014-.271,0-.042,0-.083.009-.126.01-.128.024-.258.042-.391l0-.044c.02-.145.046-.292.076-.441.01-.049.023-.1.035-.149.022-.1.047-.2.075-.3q.027-.091.057-.183c.029-.09.061-.179.094-.268.024-.062.048-.125.075-.186.04-.092.085-.181.13-.27.028-.054.053-.109.084-.162a3.6,3.6,0,0,1,.253-.385c.033-.045.073-.085.108-.128.068-.082.138-.162.214-.238.048-.048.1-.092.154-.138.075-.065.153-.127.235-.186q.087-.063.18-.12a3.349,3.349,0,0,1,.3-.159c.061-.029.118-.059.182-.085a3.642,3.642,0,0,1,.529-.171l.025-.007A5.08,5.08,0,0,1,35,34a14.285,14.285,0,0,0,3.891-.536C38.607,35.773,37.6,40,34,40A7.143,7.143,0,0,1,32.653,39.909Zm-.223-7.427a5.172,5.172,0,0,0-.723.373c-.065.041-.131.08-.193.123a5.039,5.039,0,0,0-.675.545c-.023.024-.042.049-.066.073a5.452,5.452,0,0,0-.493.585c-.043.06-.086.118-.127.179a6.112,6.112,0,0,0-.419.714c-.008.016-.013.032-.02.047a7,7,0,0,0-.3.731c-.024.069-.047.138-.069.208-.08.25-.151.5-.206.756l-.007.032c-.057.265-.1.528-.129.789-.009.07-.016.139-.023.208-.024.231-.041.459-.049.68,0,.02,0,.043,0,.063A5.624,5.624,0,0,1,25,33a10.464,10.464,0,0,1,3.965-8.35,7.408,7.408,0,0,0,1.681,3.612,8.452,8.452,0,0,1,1.881,4.17C32.492,32.446,32.465,32.467,32.43,32.482ZM10.449,16.671l10.935-6.313L29.5,5.675a4.971,4.971,0,0,1,3.805-.5,5.06,5.06,0,0,1,1.193.5l8.221,4.743,10.83,6.252A5.067,5.067,0,0,1,56.05,21V43a5,5,0,0,1-2.5,4.324l-1.534.888a5.058,5.058,0,0,0,.035-.592V22.16a3.02,3.02,0,0,0-1.5-2.606L33.5,9.715a3,3,0,0,0-3,0L13.448,19.555a3.019,3.019,0,0,0-1.5,2.605V47.62a5.058,5.058,0,0,0,.035.592l-1.537-.889A5,5,0,0,1,7.95,43V21a5.033,5.033,0,0,1,2.5-4.329Z" style="" fill="currentColor"></path></g></svg>
