<svg xmlns="http://www.w3.org/2000/svg" xmlns:xlink="http://www.w3.org/1999/xlink" version="1.1" x="0px" y="0px" viewBox="0 0 64 64" style="enable-background:new 0 0 64 64;max-width:100%" xml:space="preserve" height="100%"><g style="" fill="currentColor"><g style="" fill="currentColor"><rect x="26" y="2" width="2" height="29" style="" fill="currentColor"></rect></g><g style="" fill="currentColor"><rect x="2" y="26" width="50" height="2" style="" fill="currentColor"></rect></g><g style="" fill="currentColor"><path d="M40.699,31.143l-1.979-0.285C38.906,29.564,39,28.267,39,27C39,11.998,26.543,2.903,26.418,2.813l1.164-1.626    C28.13,1.58,41,10.981,41,27C41,28.361,40.899,29.755,40.699,31.143z" style="" fill="currentColor"></path></g><g style="" fill="currentColor"><path d="M27,17c-13.441,0-18.564-6.109-18.776-6.369l1.549-1.266C9.819,9.422,14.589,15,27,15c12.5,0,17.178-5.575,17.224-5.631    l1.552,1.262C45.564,10.891,40.441,17,27,17z" style="" fill="currentColor"></path></g><g style="" fill="currentColor"><path d="M61,56h-8v-6h8c1.103,0,2,0.897,2,2v2C63,55.103,62.103,56,61,56z M55,54h6v-2h-6V54z" style="" fill="currentColor"></path></g><g style="" fill="currentColor"><polygon points="61,51 59,51 59,45.181 56.307,38 42,38 42,36 57.693,36 61,44.819   " style="" fill="currentColor"></polygon></g><g style="" fill="currentColor"><path d="M13.301,31.143C13.101,29.755,13,28.361,13,27C13,10.981,25.87,1.58,26.418,1.187l1.165,1.625    C27.457,2.903,15,12.029,15,27c0,1.267,0.094,2.564,0.28,3.857L13.301,31.143z" style="" fill="currentColor"></path></g><g style="" fill="currentColor"><path d="M48,63c-3.86,0-7-3.14-7-7s3.14-7,7-7s7,3.14,7,7S51.86,63,48,63z M48,51c-2.757,0-5,2.243-5,5s2.243,5,5,5s5-2.243,5-5    S50.757,51,48,51z" style="" fill="currentColor"></path></g><g style="" fill="currentColor"><path d="M21,63c-3.86,0-7-3.14-7-7s3.14-7,7-7s7,3.14,7,7S24.86,63,21,63z M21,51c-2.757,0-5,2.243-5,5s2.243,5,5,5s5-2.243,5-5    S23.757,51,21,51z" style="" fill="currentColor"></path></g><g style="" fill="currentColor"><path d="M9.771,44.636l-1.546-1.269c0.054-0.066,1.363-1.644,4.306-3.206l0.938,1.767C10.915,43.283,9.783,44.623,9.771,44.636z" style="" fill="currentColor"></path></g><g style="" fill="currentColor"><path d="M12.439,48.542C5.276,43.692,1,35.639,1,27C1,12.664,12.664,1,27,1s26,11.664,26,26c0,3.606-0.73,7.105-2.169,10.4    L48.998,36.6C50.326,33.559,51,30.329,51,27C51,13.766,40.233,3,27,3S3,13.766,3,27c0,7.974,3.948,15.408,10.561,19.886    L12.439,48.542z" style="" fill="currentColor"></path></g><g style="" fill="currentColor"><polygon points="43,55 26.466,55 26.466,53 41,53 41,32 14,32 14,53 15,53 15,55 12,55 12,30 43,30   " style="" fill="currentColor"></polygon></g><g style="" fill="currentColor"><path d="M60,46h-9c-1.654,0-3-1.346-3-3v-6h2v6c0,0.551,0.449,1,1,1h9V46z" style="" fill="currentColor"></path></g><g style="" fill="currentColor"><rect x="13" y="38" width="29" height="2" style="" fill="currentColor"></rect></g><g style="" fill="currentColor"><rect x="18" y="44" width="24" height="2" style="" fill="currentColor"></rect></g><g style="" fill="currentColor"><rect x="13" y="44" width="3" height="2" style="" fill="currentColor"></rect></g></g></svg>
