<svg xmlns="http://www.w3.org/2000/svg" xmlns:xlink="http://www.w3.org/1999/xlink" version="1.1" x="0px" y="0px" viewBox="0 0 64 64" style="enable-background:new 0 0 64 64;max-width:100%" xml:space="preserve" height="100%"><g style="" fill="currentColor"><path d="M48,37V24c0-1.654-1.346-3-3-3h-5v-1c0-1.654-1.346-3-3-3c-0.395,0-0.77,0.081-1.116,0.22C35.539,15.945,34.383,15,33,15   s-2.538,0.945-2.884,2.22C29.77,17.081,29.395,17,29,17c-0.771,0-1.468,0.301-2,0.78c-0.532-0.48-1.229-0.78-2-0.78   c-1.654,0-3,1.346-3,3v1h-3c-1.654,0-3,1.346-3,3v13c0,1.654,1.346,3,3,3h2v1.634c0,1.048,0.247,2.097,0.716,3.035L24,49.236V63h2   V48.764l-2.495-4.989C23.175,43.113,23,42.373,23,41.634V40h14.847l0.763-4.573C38.747,34.6,39.455,34,40.293,34   C41.234,34,42,34.766,42,35.707v6.264c0,1.082-0.372,2.144-1.049,2.989L38,48.649V63h2V49.351l2.514-3.142   C43.472,45.01,44,43.505,44,41.971V40h1C46.654,40,48,38.654,48,37z M37,19c0.552,0,1,0.449,1,1v1h-2v-1C36,19.449,36.448,19,37,19   z M32,18c0-0.551,0.448-1,1-1s1,0.449,1,1v2v1h-2v-1V18z M29,19c0.552,0,1,0.449,1,1v1h-2v-1C28,19.449,28.448,19,29,19z M24,20   c0-0.551,0.448-1,1-1s1,0.449,1,1v1h-2V20z M19,23h26c0.552,0,1,0.449,1,1v1H18v-1C18,23.449,18.448,23,19,23z M45,38h-1v-2.293   C44,33.663,42.337,32,40.293,32c-1.819,0-3.356,1.303-3.656,3.098L36.153,38H19c-0.552,0-1-0.448-1-1V27h28v10   C46,37.552,45.552,38,45,38z" style="" fill="currentColor"></path><path d="M26,29c-0.509,0-1.019,0.104-1.5,0.302C24.019,29.104,23.509,29,23,29c-2.206,0-4,1.794-4,4c0,2.206,1.794,4,4,4   c0.509,0,1.019-0.104,1.5-0.303C24.981,36.896,25.491,37,26,37c2.206,0,4-1.794,4-4C30,30.794,28.206,29,26,29z M26,35   c-0.343,0-0.678-0.094-0.996-0.28L24.5,34.427l-0.504,0.293C23.678,34.906,23.343,35,23,35c-1.103,0-2-0.897-2-2   c0-1.103,0.897-2,2-2c0.343,0,0.678,0.094,0.996,0.28l0.504,0.293l0.504-0.293C25.322,31.094,25.657,31,26,31c1.103,0,2,0.897,2,2   C28,34.103,27.103,35,26,35z" style="" fill="currentColor"></path><path d="M32,11c2.757,0,5-2.243,5-5s-2.243-5-5-5s-5,2.243-5,5S29.243,11,32,11z M32,3c1.654,0,3,1.346,3,3s-1.346,3-3,3   s-3-1.346-3-3S30.346,3,32,3z" style="" fill="currentColor"></path><path d="M13.615,18.615c1.336,0,2.591-0.52,3.535-1.464c1.949-1.95,1.949-5.122,0-7.071c-0.944-0.944-2.199-1.464-3.535-1.464   s-2.591,0.52-3.535,1.464c-1.949,1.95-1.949,5.122,0,7.071C11.024,18.095,12.279,18.615,13.615,18.615z M11.494,11.494   c0.566-0.566,1.319-0.878,2.121-0.878s1.555,0.312,2.121,0.878c1.17,1.17,1.17,3.073,0,4.243c-1.133,1.133-3.109,1.133-4.242,0   C10.324,14.567,10.324,12.664,11.494,11.494z" style="" fill="currentColor"></path><path d="M11,32c0-2.757-2.243-5-5-5s-5,2.243-5,5s2.243,5,5,5S11,34.757,11,32z M6,35c-1.654,0-3-1.346-3-3s1.346-3,3-3   s3,1.346,3,3S7.654,35,6,35z" style="" fill="currentColor"></path><path d="M13.615,45.385c-1.336,0-2.591,0.521-3.535,1.465s-1.465,2.199-1.465,3.535s0.521,2.592,1.465,3.535   c0.943,0.944,2.199,1.465,3.535,1.465s2.592-0.521,3.535-1.465c0.944-0.943,1.465-2.199,1.465-3.535s-0.521-2.592-1.465-3.535   C16.207,45.905,14.951,45.385,13.615,45.385z M15.736,52.506c-1.133,1.133-3.109,1.133-4.242,0   c-0.566-0.566-0.879-1.319-0.879-2.121s0.312-1.555,0.879-2.121s1.319-0.879,2.121-0.879s1.555,0.312,2.121,0.879   s0.879,1.319,0.879,2.121S16.303,51.939,15.736,52.506z" style="" fill="currentColor"></path><path d="M50.385,45.385c-1.336,0-2.592,0.521-3.535,1.465c-0.944,0.943-1.465,2.199-1.465,3.535s0.521,2.591,1.465,3.535   s2.199,1.465,3.535,1.465s2.592-0.521,3.535-1.465c0.944-0.943,1.465-2.199,1.465-3.535s-0.521-2.592-1.465-3.535   C52.977,45.905,51.721,45.385,50.385,45.385z M52.506,52.506c-1.133,1.133-3.109,1.133-4.242,0   c-0.566-0.566-0.879-1.319-0.879-2.121s0.312-1.555,0.879-2.121s1.319-0.879,2.121-0.879s1.555,0.312,2.121,0.879   s0.879,1.319,0.879,2.121S53.072,51.939,52.506,52.506z" style="" fill="currentColor"></path><path d="M58,27c-2.757,0-5,2.243-5,5s2.243,5,5,5s5-2.243,5-5S60.757,27,58,27z M58,35c-1.654,0-3-1.346-3-3s1.346-3,3-3   s3,1.346,3,3S59.654,35,58,35z" style="" fill="currentColor"></path><path d="M50.385,18.615c1.336,0,2.591-0.52,3.535-1.464c1.949-1.95,1.949-5.122,0-7.071c-0.944-0.944-2.199-1.464-3.535-1.464   s-2.591,0.52-3.535,1.464c-1.949,1.95-1.949,5.122,0,7.071C47.794,18.095,49.049,18.615,50.385,18.615z M48.264,11.494   c0.566-0.566,1.319-0.878,2.121-0.878s1.555,0.312,2.121,0.878c1.17,1.17,1.17,3.073,0,4.243c-1.133,1.133-3.109,1.133-4.242,0   C47.094,14.567,47.094,12.664,48.264,11.494z" style="" fill="currentColor"></path><rect x="21.882" y="8.5" transform="matrix(0.8944 -0.4472 0.4472 0.8944 -1.8204 11.2889)" width="2.236" height="2" style="" fill="currentColor"></rect><rect x="8.609" y="21.454" transform="matrix(0.3165 -0.9486 0.9486 0.3165 -14.6517 24.5734)" width="2.236" height="1.999" style="" fill="currentColor"></rect><rect x="8.5" y="39.882" transform="matrix(0.8944 -0.4472 0.4472 0.8944 -17.3328 8.577)" width="2" height="2.236" style="" fill="currentColor"></rect><rect x="53.156" y="40.546" transform="matrix(0.3165 -0.9486 0.9486 0.3165 -2.3151 79.8788)" width="2.236" height="1.999" style="" fill="currentColor"></rect><rect x="53.5" y="21.882" transform="matrix(0.8944 -0.4472 0.4472 0.8944 -4.5322 26.8013)" width="2" height="2.236" style="" fill="currentColor"></rect><rect x="40.546" y="8.608" transform="matrix(0.3162 -0.9487 0.9487 0.3162 19.181 46.0643)" width="2" height="2.236" style="" fill="currentColor"></rect></g></svg>
